G04 (created by PCBNEW (2013-07-07 BZR 4022)-stable) date 3/26/2016 10:09:36 AM*
%MOIN*%
G04 Gerber Fmt 3.4, Leading zero omitted, Abs format*
%FSLAX34Y34*%
G01*
G70*
G90*
G04 APERTURE LIST*
%ADD10C,0.00590551*%
%ADD11R,0.0275X0.0354*%
%ADD12R,0.0629X0.1062*%
%ADD13R,0.0866X0.0236*%
%ADD14R,0.0236X0.0866*%
%ADD15R,0.0866142X0.0590551*%
%ADD16C,0.25*%
%ADD17R,0.0472X0.0216*%
%ADD18R,0.0393X0.0551*%
%ADD19R,0.0551X0.0393*%
%ADD20R,0.1062X0.0629*%
%ADD21R,0.0315X0.0217*%
%ADD22R,0.0217X0.0315*%
%ADD23C,0.0401575*%
%ADD24R,0.0570866X0.0120079*%
%ADD25R,0.0570866X0.0119882*%
%ADD26R,0.057X0.012*%
%ADD27R,0.0252X0.185*%
%ADD28R,0.0252X0.1*%
%ADD29R,0.0137795X0.0629921*%
%ADD30R,0.0244094X0.0480315*%
%ADD31R,0.0480315X0.0244094*%
%ADD32R,0.0866142X0.0787402*%
%ADD33R,0.0787402X0.0866142*%
%ADD34R,0.0629921X0.0137795*%
%ADD35R,0.0393X0.0433*%
%ADD36R,0.0433X0.0393*%
%ADD37R,0.0354X0.0275*%
%ADD38R,0.023622X0.0314961*%
%ADD39R,0.023622X0.0255906*%
%ADD40C,0.0787402*%
%ADD41R,0.0551181X0.0826772*%
%ADD42R,0.0826772X0.0551181*%
%ADD43R,0.0314961X0.023622*%
%ADD44R,0.0240157X0.175197*%
%ADD45R,0.175197X0.0240157*%
G04 APERTURE END LIST*
G54D10*
G54D11*
X61455Y-48850D03*
X60945Y-48850D03*
G54D12*
X48651Y-67050D03*
X47549Y-67050D03*
G54D13*
X71127Y-56300D03*
X71127Y-56800D03*
X71127Y-57300D03*
X71127Y-57800D03*
X71127Y-58300D03*
X71127Y-58800D03*
X71127Y-59300D03*
X73173Y-59300D03*
X73173Y-58800D03*
X73173Y-58300D03*
X73173Y-57800D03*
X73173Y-57300D03*
X73173Y-56800D03*
X73173Y-56300D03*
G54D14*
X48625Y-70252D03*
X48125Y-70252D03*
X47625Y-70252D03*
X47125Y-70252D03*
X46625Y-70252D03*
X46125Y-70252D03*
X45625Y-70252D03*
X45625Y-72298D03*
X46125Y-72298D03*
X46625Y-72298D03*
X47125Y-72298D03*
X47625Y-72298D03*
X48125Y-72298D03*
X48625Y-72298D03*
G54D13*
X44673Y-52250D03*
X44673Y-51750D03*
X44673Y-51250D03*
X44673Y-50750D03*
X44673Y-50250D03*
X44673Y-49750D03*
X44673Y-49250D03*
X42627Y-49250D03*
X42627Y-49750D03*
X42627Y-50250D03*
X42627Y-50750D03*
X42627Y-51250D03*
X42627Y-51750D03*
X42627Y-52250D03*
G54D14*
X61950Y-46823D03*
X62450Y-46823D03*
X62950Y-46823D03*
X63450Y-46823D03*
X63950Y-46823D03*
X64450Y-46823D03*
X64950Y-46823D03*
X64950Y-44777D03*
X64450Y-44777D03*
X63950Y-44777D03*
X63450Y-44777D03*
X62950Y-44777D03*
X62450Y-44777D03*
X61950Y-44777D03*
G54D13*
X45077Y-55550D03*
X45077Y-56050D03*
X45077Y-56550D03*
X45077Y-57050D03*
X45077Y-57550D03*
X45077Y-58050D03*
X45077Y-58550D03*
X47123Y-58550D03*
X47123Y-58050D03*
X47123Y-57550D03*
X47123Y-57050D03*
X47123Y-56550D03*
X47123Y-56050D03*
X47123Y-55550D03*
G54D14*
X73800Y-67577D03*
X73300Y-67577D03*
X72800Y-67577D03*
X72300Y-67577D03*
X71800Y-67577D03*
X71300Y-67577D03*
X70800Y-67577D03*
X70800Y-69623D03*
X71300Y-69623D03*
X71800Y-69623D03*
X72300Y-69623D03*
X72800Y-69623D03*
X73300Y-69623D03*
X73800Y-69623D03*
G54D15*
X54850Y-67017D03*
X54850Y-69182D03*
G54D16*
X42519Y-44488D03*
X73622Y-44488D03*
X73622Y-75590D03*
X42519Y-75590D03*
G54D17*
X53389Y-64726D03*
X53389Y-65100D03*
X53389Y-65474D03*
X54411Y-65474D03*
X54411Y-64726D03*
G54D18*
X64474Y-50417D03*
X63726Y-50417D03*
X64100Y-51283D03*
X61476Y-71883D03*
X62224Y-71883D03*
X61850Y-71017D03*
X50574Y-62317D03*
X49826Y-62317D03*
X50200Y-63183D03*
G54D19*
X51717Y-52376D03*
X51717Y-53124D03*
X52583Y-52750D03*
G54D20*
X63050Y-71099D03*
X63050Y-72201D03*
X55200Y-50751D03*
X55200Y-49649D03*
X51350Y-70699D03*
X51350Y-71801D03*
G54D12*
X65949Y-52600D03*
X67051Y-52600D03*
G54D20*
X65325Y-58249D03*
X65325Y-59351D03*
X44650Y-66199D03*
X44650Y-67301D03*
G54D12*
X53601Y-77950D03*
X52499Y-77950D03*
G54D20*
X71150Y-52949D03*
X71150Y-54051D03*
G54D12*
X50399Y-46200D03*
X51501Y-46200D03*
G54D20*
X64750Y-64301D03*
X64750Y-63199D03*
G54D12*
X66001Y-73200D03*
X64899Y-73200D03*
G54D21*
X70122Y-73900D03*
X70122Y-73526D03*
X70122Y-73152D03*
X69178Y-73152D03*
X69178Y-73526D03*
X69178Y-73900D03*
G54D22*
X51550Y-74928D03*
X51176Y-74928D03*
X50802Y-74928D03*
X50802Y-75872D03*
X51176Y-75872D03*
X51550Y-75872D03*
X70550Y-49928D03*
X70176Y-49928D03*
X69802Y-49928D03*
X69802Y-50872D03*
X70176Y-50872D03*
X70550Y-50872D03*
G54D21*
X48578Y-47200D03*
X48578Y-47574D03*
X48578Y-47948D03*
X49522Y-47948D03*
X49522Y-47574D03*
X49522Y-47200D03*
X45628Y-61950D03*
X45628Y-62324D03*
X45628Y-62698D03*
X46572Y-62698D03*
X46572Y-62324D03*
X46572Y-61950D03*
G54D22*
X68725Y-63028D03*
X68351Y-63028D03*
X67977Y-63028D03*
X67977Y-63972D03*
X68351Y-63972D03*
X68725Y-63972D03*
X54400Y-75678D03*
X54026Y-75678D03*
X53652Y-75678D03*
X53652Y-76622D03*
X54026Y-76622D03*
X54400Y-76622D03*
X66750Y-63028D03*
X66376Y-63028D03*
X66002Y-63028D03*
X66002Y-63972D03*
X66376Y-63972D03*
X66750Y-63972D03*
G54D21*
X46572Y-64750D03*
X46572Y-64376D03*
X46572Y-64002D03*
X45628Y-64002D03*
X45628Y-64376D03*
X45628Y-64750D03*
X70178Y-51500D03*
X70178Y-51874D03*
X70178Y-52248D03*
X71122Y-52248D03*
X71122Y-51874D03*
X71122Y-51500D03*
X51722Y-47950D03*
X51722Y-47576D03*
X51722Y-47202D03*
X50778Y-47202D03*
X50778Y-47576D03*
X50778Y-47950D03*
G54D22*
X67550Y-72028D03*
X67176Y-72028D03*
X66802Y-72028D03*
X66802Y-72972D03*
X67176Y-72972D03*
X67550Y-72972D03*
G54D23*
X57019Y-76603D03*
X57019Y-68677D03*
G54D24*
X59285Y-69783D03*
G54D23*
X58869Y-76275D03*
X58869Y-69000D03*
G54D24*
X59285Y-69980D03*
X56855Y-69783D03*
X56855Y-69980D03*
G54D25*
X59285Y-70176D03*
G54D24*
X56855Y-70176D03*
X59285Y-70373D03*
X56855Y-70373D03*
X59285Y-70570D03*
X56855Y-70570D03*
X59285Y-70767D03*
X56855Y-70767D03*
X59285Y-70964D03*
X56855Y-70964D03*
X59285Y-71161D03*
X56855Y-71161D03*
X59285Y-71357D03*
X56855Y-71357D03*
X59285Y-71554D03*
X56855Y-71554D03*
X59285Y-71751D03*
X56855Y-71751D03*
X59285Y-71948D03*
X56855Y-71948D03*
X59285Y-72145D03*
X56855Y-72145D03*
X59285Y-72342D03*
X56855Y-72342D03*
X59285Y-72539D03*
X56855Y-72539D03*
X59285Y-72735D03*
X56855Y-72735D03*
X59285Y-72932D03*
X56855Y-72932D03*
X59285Y-73129D03*
X56855Y-73129D03*
X59285Y-73326D03*
X56855Y-73326D03*
X59285Y-73523D03*
X56855Y-73523D03*
X59285Y-73720D03*
X56855Y-73720D03*
X59285Y-73917D03*
X56855Y-73917D03*
X59285Y-74113D03*
X56855Y-74113D03*
X59285Y-74310D03*
X56855Y-74310D03*
X59285Y-74507D03*
G54D26*
X56853Y-74507D03*
G54D24*
X59285Y-74704D03*
X56855Y-74704D03*
X59285Y-74901D03*
X56855Y-74901D03*
X59285Y-75098D03*
X56855Y-75098D03*
X59285Y-75294D03*
X56855Y-75294D03*
X59285Y-75491D03*
X56855Y-75491D03*
G54D27*
X58070Y-71387D03*
X58070Y-73887D03*
G54D28*
X58070Y-75962D03*
X58070Y-69312D03*
G54D29*
X59950Y-63267D03*
X59694Y-63267D03*
X59438Y-63267D03*
X59183Y-63267D03*
X58927Y-63267D03*
X58671Y-63267D03*
X58415Y-63267D03*
X58415Y-65472D03*
X58671Y-65472D03*
X58927Y-65472D03*
X59183Y-65472D03*
X59438Y-65472D03*
X59694Y-65472D03*
X59950Y-65472D03*
X58159Y-65472D03*
X58159Y-63267D03*
X57194Y-63267D03*
X56938Y-63267D03*
X56683Y-63267D03*
X56427Y-63267D03*
X56171Y-63267D03*
X55915Y-63267D03*
X55659Y-63267D03*
X55659Y-65472D03*
X55915Y-65472D03*
X56171Y-65472D03*
X56427Y-65472D03*
X56683Y-65472D03*
X56938Y-65472D03*
X57194Y-65472D03*
X55403Y-65472D03*
X55403Y-63267D03*
G54D18*
X67424Y-56017D03*
X66676Y-56017D03*
X67050Y-56883D03*
X52524Y-67267D03*
X51776Y-67267D03*
X52150Y-68133D03*
G54D30*
X50726Y-64865D03*
X51100Y-64865D03*
X51474Y-64865D03*
X51474Y-63835D03*
X50726Y-63835D03*
X51376Y-69865D03*
X51750Y-69865D03*
X52124Y-69865D03*
X52124Y-68835D03*
X51376Y-68835D03*
G54D31*
X53285Y-51576D03*
X53285Y-51950D03*
X53285Y-52324D03*
X54315Y-52324D03*
X54315Y-51576D03*
X63015Y-70424D03*
X63015Y-70050D03*
X63015Y-69676D03*
X61985Y-69676D03*
X61985Y-70424D03*
G54D30*
X65376Y-57415D03*
X65750Y-57415D03*
X66124Y-57415D03*
X66124Y-56385D03*
X65376Y-56385D03*
G54D31*
X65165Y-53024D03*
X65165Y-52650D03*
X65165Y-52276D03*
X64135Y-52276D03*
X64135Y-53024D03*
G54D32*
X53150Y-48538D03*
X53150Y-50861D03*
G54D33*
X47288Y-65000D03*
X49611Y-65000D03*
G54D32*
X67375Y-60461D03*
X67375Y-58138D03*
G54D33*
X67761Y-50550D03*
X65438Y-50550D03*
X66311Y-69750D03*
X63988Y-69750D03*
G54D32*
X53400Y-72911D03*
X53400Y-70588D03*
G54D29*
X50595Y-49647D03*
X50339Y-49647D03*
X50083Y-49647D03*
X49827Y-49647D03*
X49572Y-49647D03*
X49316Y-49647D03*
X49060Y-49647D03*
X49060Y-51852D03*
X49316Y-51852D03*
X49572Y-51852D03*
X49827Y-51852D03*
X50083Y-51852D03*
X50339Y-51852D03*
X50595Y-51852D03*
X48804Y-51852D03*
X48804Y-49647D03*
G54D34*
X43352Y-63795D03*
X43352Y-63539D03*
X43352Y-63283D03*
X43352Y-63027D03*
X43352Y-62772D03*
X43352Y-62516D03*
X43352Y-62260D03*
X41147Y-62260D03*
X41147Y-62516D03*
X41147Y-62772D03*
X41147Y-63027D03*
X41147Y-63283D03*
X41147Y-63539D03*
X41147Y-63795D03*
X41147Y-62004D03*
X43352Y-62004D03*
G54D29*
X48204Y-76802D03*
X48460Y-76802D03*
X48716Y-76802D03*
X48972Y-76802D03*
X49227Y-76802D03*
X49483Y-76802D03*
X49739Y-76802D03*
X49739Y-74597D03*
X49483Y-74597D03*
X49227Y-74597D03*
X48972Y-74597D03*
X48716Y-74597D03*
X48460Y-74597D03*
X48204Y-74597D03*
X49995Y-74597D03*
X49995Y-76802D03*
X66804Y-68552D03*
X67060Y-68552D03*
X67316Y-68552D03*
X67572Y-68552D03*
X67827Y-68552D03*
X68083Y-68552D03*
X68339Y-68552D03*
X68339Y-66347D03*
X68083Y-66347D03*
X67827Y-66347D03*
X67572Y-66347D03*
X67316Y-66347D03*
X67060Y-66347D03*
X66804Y-66347D03*
X68595Y-66347D03*
X68595Y-68552D03*
X68604Y-48602D03*
X68860Y-48602D03*
X69116Y-48602D03*
X69372Y-48602D03*
X69627Y-48602D03*
X69883Y-48602D03*
X70139Y-48602D03*
X70139Y-46397D03*
X69883Y-46397D03*
X69627Y-46397D03*
X69372Y-46397D03*
X69116Y-46397D03*
X68860Y-46397D03*
X68604Y-46397D03*
X70395Y-46397D03*
X70395Y-48602D03*
G54D34*
X70597Y-62554D03*
X70597Y-62810D03*
X70597Y-63066D03*
X70597Y-63322D03*
X70597Y-63577D03*
X70597Y-63833D03*
X70597Y-64089D03*
X72802Y-64089D03*
X72802Y-63833D03*
X72802Y-63577D03*
X72802Y-63322D03*
X72802Y-63066D03*
X72802Y-62810D03*
X72802Y-62554D03*
X72802Y-64345D03*
X70597Y-64345D03*
G54D35*
X74000Y-64184D03*
X74000Y-63516D03*
G54D36*
X48884Y-53100D03*
X48216Y-53100D03*
G54D35*
X69100Y-65984D03*
X69100Y-65316D03*
G54D36*
X70816Y-47100D03*
X71484Y-47100D03*
G54D35*
X41700Y-61534D03*
X41700Y-60866D03*
X49500Y-73934D03*
X49500Y-73266D03*
G54D36*
X47250Y-62616D03*
X47250Y-63284D03*
X52200Y-74916D03*
X52200Y-75584D03*
X58070Y-58404D03*
X58070Y-57736D03*
X69800Y-53384D03*
X69800Y-52716D03*
G54D35*
X68684Y-73150D03*
X68016Y-73150D03*
X65616Y-62500D03*
X66284Y-62500D03*
X49566Y-48400D03*
X50234Y-48400D03*
G54D37*
X64050Y-43245D03*
X64050Y-43755D03*
X69150Y-55705D03*
X69150Y-55195D03*
G54D11*
X48855Y-57550D03*
X48345Y-57550D03*
X74930Y-68275D03*
X74420Y-68275D03*
X39945Y-53200D03*
X40455Y-53200D03*
X42995Y-55250D03*
X43505Y-55250D03*
X46205Y-52250D03*
X45695Y-52250D03*
G54D37*
X71300Y-71155D03*
X71300Y-70645D03*
G54D11*
X74905Y-58300D03*
X74395Y-58300D03*
X60895Y-46300D03*
X61405Y-46300D03*
X74905Y-59800D03*
X74395Y-59800D03*
G54D37*
X72450Y-60355D03*
X72450Y-59845D03*
G54D11*
X73405Y-59900D03*
X72895Y-59900D03*
X71305Y-59750D03*
X70795Y-59750D03*
X69745Y-59000D03*
X70255Y-59000D03*
X44045Y-71050D03*
X44555Y-71050D03*
X45055Y-69300D03*
X44545Y-69300D03*
G54D37*
X45100Y-74205D03*
X45100Y-73695D03*
G54D11*
X45605Y-73250D03*
X45095Y-73250D03*
G54D37*
X44550Y-72805D03*
X44550Y-72295D03*
G54D11*
X69645Y-69300D03*
X70155Y-69300D03*
X69745Y-70600D03*
X70255Y-70600D03*
G54D37*
X44450Y-59045D03*
X44450Y-59555D03*
X47000Y-59605D03*
X47000Y-59095D03*
X47500Y-59605D03*
X47500Y-59095D03*
G54D11*
X48855Y-58550D03*
X48345Y-58550D03*
X46155Y-48500D03*
X45645Y-48500D03*
G54D37*
X45200Y-48205D03*
X45200Y-47695D03*
X43900Y-58605D03*
X43900Y-58095D03*
G54D11*
X43605Y-48650D03*
X43095Y-48650D03*
X40395Y-49750D03*
X40905Y-49750D03*
G54D37*
X71300Y-66045D03*
X71300Y-66555D03*
X70150Y-67755D03*
X70150Y-67245D03*
X70300Y-71555D03*
X70300Y-71045D03*
X43150Y-47695D03*
X43150Y-48205D03*
X47100Y-69405D03*
X47100Y-68895D03*
X58600Y-57945D03*
X58600Y-58455D03*
G54D11*
X59245Y-66150D03*
X59755Y-66150D03*
G54D37*
X62800Y-61855D03*
X62800Y-61345D03*
X58350Y-66095D03*
X58350Y-66605D03*
X65450Y-48705D03*
X65450Y-48195D03*
G54D11*
X63455Y-47700D03*
X62945Y-47700D03*
G54D37*
X69650Y-67755D03*
X69650Y-67245D03*
G54D11*
X56295Y-66150D03*
X56805Y-66150D03*
G54D37*
X44500Y-68345D03*
X44500Y-68855D03*
X73450Y-64255D03*
X73450Y-63745D03*
X70600Y-62205D03*
X70600Y-61695D03*
X66150Y-45755D03*
X66150Y-45245D03*
G54D11*
X67205Y-45700D03*
X66695Y-45700D03*
X68205Y-48400D03*
X67695Y-48400D03*
X70795Y-46600D03*
X71305Y-46600D03*
X54355Y-64250D03*
X53845Y-64250D03*
X44255Y-57050D03*
X43745Y-57050D03*
G54D37*
X50000Y-74005D03*
X50000Y-73495D03*
G54D11*
X47805Y-76800D03*
X47295Y-76800D03*
X46155Y-47500D03*
X45645Y-47500D03*
G54D37*
X68600Y-65755D03*
X68600Y-65245D03*
X65150Y-43295D03*
X65150Y-43805D03*
G54D11*
X50995Y-49650D03*
X51505Y-49650D03*
X48855Y-52550D03*
X48345Y-52550D03*
X43445Y-59550D03*
X43955Y-59550D03*
X66405Y-68050D03*
X65895Y-68050D03*
X65595Y-44800D03*
X66105Y-44800D03*
G54D37*
X70850Y-60705D03*
X70850Y-60195D03*
G54D11*
X70255Y-57500D03*
X69745Y-57500D03*
G54D37*
X72300Y-66755D03*
X72300Y-66245D03*
G54D11*
X64995Y-47650D03*
X65505Y-47650D03*
G54D37*
X43350Y-64195D03*
X43350Y-64705D03*
X41150Y-61605D03*
X41150Y-61095D03*
G54D11*
X45695Y-50750D03*
X46205Y-50750D03*
G54D37*
X48200Y-68745D03*
X48200Y-69255D03*
X46600Y-73705D03*
X46600Y-73195D03*
G54D11*
X66105Y-43800D03*
X65595Y-43800D03*
G54D37*
X69300Y-58495D03*
X69300Y-59005D03*
G54D11*
X70155Y-69800D03*
X69645Y-69800D03*
X72895Y-60400D03*
X73405Y-60400D03*
X74395Y-60300D03*
X74905Y-60300D03*
G54D37*
X69800Y-71045D03*
X69800Y-71555D03*
X73950Y-60355D03*
X73950Y-59845D03*
X61950Y-56145D03*
X61950Y-56655D03*
X61450Y-58295D03*
X61450Y-58805D03*
X61950Y-58295D03*
X61950Y-58805D03*
X61450Y-60445D03*
X61450Y-60955D03*
X61950Y-60445D03*
X61950Y-60955D03*
X62800Y-56145D03*
X62800Y-56655D03*
X63300Y-56145D03*
X63300Y-56655D03*
X62800Y-58295D03*
X62800Y-58805D03*
X63300Y-58295D03*
X63300Y-58805D03*
X62800Y-60445D03*
X62800Y-60955D03*
X63300Y-60445D03*
X63300Y-60955D03*
X46100Y-73705D03*
X46100Y-73195D03*
X45550Y-68795D03*
X45550Y-69305D03*
X61450Y-56145D03*
X61450Y-56655D03*
G54D11*
X74905Y-58800D03*
X74395Y-58800D03*
G54D37*
X44100Y-70095D03*
X44100Y-70605D03*
G54D11*
X74395Y-59300D03*
X74905Y-59300D03*
X44045Y-71850D03*
X44555Y-71850D03*
G54D37*
X44050Y-72295D03*
X44050Y-72805D03*
X45600Y-73695D03*
X45600Y-74205D03*
X45050Y-71795D03*
X45050Y-72305D03*
X64650Y-51855D03*
X64650Y-51345D03*
G54D11*
X50145Y-61700D03*
X50655Y-61700D03*
G54D37*
X50200Y-64255D03*
X50200Y-63745D03*
G54D11*
X52105Y-51850D03*
X51595Y-51850D03*
G54D37*
X52700Y-51695D03*
X52700Y-52205D03*
G54D11*
X64045Y-49800D03*
X64555Y-49800D03*
X63305Y-69200D03*
X62795Y-69200D03*
G54D37*
X67450Y-54945D03*
X67450Y-55455D03*
X67600Y-57455D03*
X67600Y-56945D03*
G54D11*
X51995Y-66650D03*
X52505Y-66650D03*
X50795Y-67850D03*
X51305Y-67850D03*
G54D37*
X61500Y-72955D03*
X61500Y-72445D03*
G54D11*
X47655Y-62100D03*
X47145Y-62100D03*
G54D37*
X51200Y-73995D03*
X51200Y-74505D03*
G54D11*
X42945Y-58550D03*
X43455Y-58550D03*
G54D37*
X64550Y-43245D03*
X64550Y-43755D03*
X42850Y-64195D03*
X42850Y-64705D03*
X47700Y-68745D03*
X47700Y-69255D03*
X49200Y-68395D03*
X49200Y-68905D03*
G54D11*
X49170Y-69875D03*
X49680Y-69875D03*
X49170Y-70375D03*
X49680Y-70375D03*
G54D37*
X49700Y-68905D03*
X49700Y-68395D03*
X57500Y-57945D03*
X57500Y-58455D03*
X58600Y-57455D03*
X58600Y-56945D03*
X57500Y-57455D03*
X57500Y-56945D03*
X48700Y-69255D03*
X48700Y-68745D03*
G54D11*
X42995Y-54750D03*
X43505Y-54750D03*
X69645Y-68800D03*
X70155Y-68800D03*
X47555Y-60050D03*
X47045Y-60050D03*
X50995Y-50150D03*
X51505Y-50150D03*
X48345Y-59550D03*
X48855Y-59550D03*
X48855Y-59050D03*
X48345Y-59050D03*
G54D37*
X46200Y-59605D03*
X46200Y-59095D03*
G54D11*
X42945Y-58050D03*
X43455Y-58050D03*
X43955Y-59050D03*
X43445Y-59050D03*
G54D37*
X43950Y-54595D03*
X43950Y-55105D03*
X46500Y-54595D03*
X46500Y-55105D03*
G54D11*
X48855Y-57050D03*
X48345Y-57050D03*
G54D37*
X47900Y-56005D03*
X47900Y-55495D03*
G54D11*
X48345Y-56050D03*
X48855Y-56050D03*
X43505Y-55750D03*
X42995Y-55750D03*
G54D37*
X46000Y-55105D03*
X46000Y-54595D03*
X44950Y-55105D03*
X44950Y-54595D03*
X60950Y-47895D03*
X60950Y-48405D03*
X61450Y-47895D03*
X61450Y-48405D03*
X61950Y-48405D03*
X61950Y-47895D03*
G54D11*
X60895Y-45800D03*
X61405Y-45800D03*
X70705Y-49400D03*
X70195Y-49400D03*
G54D37*
X50150Y-72155D03*
X50150Y-71645D03*
X45000Y-68855D03*
X45000Y-68345D03*
X44600Y-70095D03*
X44600Y-70605D03*
X45100Y-70605D03*
X45100Y-70095D03*
X67650Y-46205D03*
X67650Y-45695D03*
X65650Y-45245D03*
X65650Y-45755D03*
G54D11*
X65595Y-44300D03*
X66105Y-44300D03*
X68205Y-47900D03*
X67695Y-47900D03*
X66105Y-43350D03*
X65595Y-43350D03*
G54D37*
X60600Y-60445D03*
X60600Y-60955D03*
X60100Y-60445D03*
X60100Y-60955D03*
G54D11*
X69745Y-60000D03*
X70255Y-60000D03*
G54D37*
X61950Y-59195D03*
X61950Y-59705D03*
X60600Y-61345D03*
X60600Y-61855D03*
X61950Y-57045D03*
X61950Y-57555D03*
X61950Y-61345D03*
X61950Y-61855D03*
X63300Y-57045D03*
X63300Y-57555D03*
X63300Y-59195D03*
X63300Y-59705D03*
X63300Y-61345D03*
X63300Y-61855D03*
X48100Y-73195D03*
X48100Y-73705D03*
X65500Y-47005D03*
X65500Y-46495D03*
G54D11*
X61405Y-46800D03*
X60895Y-46800D03*
X67205Y-46200D03*
X66695Y-46200D03*
G54D37*
X64950Y-48195D03*
X64950Y-48705D03*
X49150Y-71645D03*
X49150Y-72155D03*
X47100Y-73705D03*
X47100Y-73195D03*
G54D11*
X61995Y-43700D03*
X62505Y-43700D03*
X61995Y-43200D03*
X62505Y-43200D03*
G54D37*
X61350Y-45255D03*
X61350Y-44745D03*
G54D11*
X62995Y-43200D03*
X63505Y-43200D03*
G54D37*
X63950Y-47595D03*
X63950Y-48105D03*
G54D11*
X73795Y-70650D03*
X74305Y-70650D03*
G54D37*
X72300Y-70645D03*
X72300Y-71155D03*
G54D11*
X74420Y-69275D03*
X74930Y-69275D03*
X74905Y-65600D03*
X74395Y-65600D03*
X74395Y-66100D03*
X74905Y-66100D03*
X74395Y-67100D03*
X74905Y-67100D03*
X74905Y-67600D03*
X74395Y-67600D03*
X74930Y-68775D03*
X74420Y-68775D03*
G54D37*
X74900Y-57195D03*
X74900Y-57705D03*
X73900Y-56805D03*
X73900Y-56295D03*
G54D11*
X43455Y-57550D03*
X42945Y-57550D03*
G54D37*
X74400Y-56295D03*
X74400Y-56805D03*
X71350Y-60195D03*
X71350Y-60705D03*
G54D11*
X69745Y-58500D03*
X70255Y-58500D03*
X40905Y-49250D03*
X40395Y-49250D03*
G54D37*
X46600Y-49005D03*
X46600Y-48495D03*
G54D11*
X70205Y-72600D03*
X69695Y-72600D03*
X68830Y-62550D03*
X68320Y-62550D03*
G54D37*
X72650Y-55195D03*
X72650Y-55705D03*
X72150Y-55195D03*
X72150Y-55705D03*
X71150Y-55705D03*
X71150Y-55195D03*
X70650Y-55705D03*
X70650Y-55195D03*
X41350Y-49195D03*
X41350Y-49705D03*
X70150Y-55195D03*
X70150Y-55705D03*
X69650Y-55195D03*
X69650Y-55705D03*
X72800Y-71155D03*
X72800Y-70645D03*
X71100Y-62205D03*
X71100Y-61695D03*
X43650Y-48205D03*
X43650Y-47695D03*
G54D11*
X41405Y-50250D03*
X40895Y-50250D03*
X41405Y-53200D03*
X40895Y-53200D03*
G54D37*
X70800Y-66555D03*
X70800Y-66045D03*
X71800Y-66045D03*
X71800Y-66555D03*
G54D11*
X70155Y-68200D03*
X69645Y-68200D03*
G54D37*
X73300Y-71155D03*
X73300Y-70645D03*
X43200Y-53205D03*
X43200Y-52695D03*
G54D11*
X40895Y-51750D03*
X41405Y-51750D03*
X40895Y-52250D03*
X41405Y-52250D03*
X41405Y-50750D03*
X40895Y-50750D03*
G54D37*
X74900Y-56295D03*
X74900Y-56805D03*
G54D11*
X45695Y-51250D03*
X46205Y-51250D03*
G54D37*
X43700Y-53205D03*
X43700Y-52695D03*
X44750Y-52695D03*
X44750Y-53205D03*
G54D11*
X45645Y-48000D03*
X46155Y-48000D03*
X46205Y-52750D03*
X45695Y-52750D03*
X46205Y-51750D03*
X45695Y-51750D03*
G54D37*
X50050Y-47045D03*
X50050Y-47555D03*
X70800Y-71155D03*
X70800Y-70645D03*
G54D11*
X71755Y-65600D03*
X71245Y-65600D03*
X47805Y-76300D03*
X47295Y-76300D03*
G54D37*
X49300Y-59005D03*
X49300Y-58495D03*
X69200Y-68745D03*
X69200Y-69255D03*
X44250Y-52695D03*
X44250Y-53205D03*
G54D11*
X66405Y-67550D03*
X65895Y-67550D03*
X70255Y-58000D03*
X69745Y-58000D03*
G54D37*
X69800Y-66045D03*
X69800Y-66555D03*
X44700Y-47695D03*
X44700Y-48205D03*
G54D11*
X48855Y-58050D03*
X48345Y-58050D03*
X45645Y-49500D03*
X46155Y-49500D03*
X46155Y-49000D03*
X45645Y-49000D03*
X63505Y-43700D03*
X62995Y-43700D03*
X48855Y-56550D03*
X48345Y-56550D03*
X40895Y-51250D03*
X41405Y-51250D03*
G54D37*
X71800Y-71155D03*
X71800Y-70645D03*
X47600Y-73705D03*
X47600Y-73195D03*
X74400Y-57705D03*
X74400Y-57195D03*
X45450Y-55105D03*
X45450Y-54595D03*
G54D35*
X53416Y-66550D03*
X54084Y-66550D03*
X53416Y-66000D03*
X54084Y-66000D03*
G54D37*
X58400Y-61345D03*
X58400Y-61855D03*
X55700Y-58845D03*
X55700Y-59355D03*
X58400Y-60095D03*
X58400Y-60605D03*
X55700Y-60095D03*
X55700Y-60605D03*
X57050Y-61345D03*
X57050Y-61855D03*
X55700Y-61345D03*
X55700Y-61855D03*
X57050Y-60095D03*
X57050Y-60605D03*
X57050Y-58845D03*
X57050Y-59355D03*
G54D35*
X71150Y-50884D03*
X71150Y-50216D03*
X69250Y-64084D03*
X69250Y-63416D03*
G54D36*
X54816Y-69900D03*
X55484Y-69900D03*
G54D35*
X55000Y-66384D03*
X55000Y-65716D03*
G54D36*
X51634Y-76400D03*
X50966Y-76400D03*
X69016Y-74450D03*
X69684Y-74450D03*
X49434Y-46550D03*
X48766Y-46550D03*
X47216Y-61600D03*
X47884Y-61600D03*
G54D37*
X56550Y-59355D03*
X56550Y-58845D03*
X55200Y-61855D03*
X55200Y-61345D03*
X56550Y-60605D03*
X56550Y-60095D03*
X55200Y-60605D03*
X55200Y-60095D03*
X56550Y-61855D03*
X56550Y-61345D03*
X55200Y-59355D03*
X55200Y-58845D03*
X57900Y-60605D03*
X57900Y-60095D03*
X55750Y-66095D03*
X55750Y-66605D03*
X57900Y-61855D03*
X57900Y-61345D03*
X60100Y-61855D03*
X60100Y-61345D03*
X61450Y-57555D03*
X61450Y-57045D03*
X61450Y-59705D03*
X61450Y-59195D03*
X61450Y-61855D03*
X61450Y-61345D03*
X62800Y-57555D03*
X62800Y-57045D03*
X62800Y-59705D03*
X62800Y-59195D03*
X53350Y-67895D03*
X53350Y-68405D03*
G54D11*
X53155Y-76600D03*
X52645Y-76600D03*
X49795Y-48950D03*
X50305Y-48950D03*
X68505Y-73700D03*
X67995Y-73700D03*
G54D37*
X45050Y-64605D03*
X45050Y-64095D03*
G54D11*
X45295Y-63450D03*
X45805Y-63450D03*
G54D37*
X68700Y-71595D03*
X68700Y-72105D03*
G54D11*
X68055Y-71050D03*
X67545Y-71050D03*
G54D37*
X47800Y-62845D03*
X47800Y-63355D03*
X54100Y-46955D03*
X54100Y-46445D03*
X52200Y-76555D03*
X52200Y-76045D03*
G54D11*
X53255Y-75150D03*
X52745Y-75150D03*
G54D37*
X52200Y-45795D03*
X52200Y-46305D03*
X65550Y-64005D03*
X65550Y-63495D03*
X67425Y-64055D03*
X67425Y-63545D03*
X67900Y-53095D03*
X67900Y-53605D03*
X71650Y-50645D03*
X71650Y-51155D03*
G54D11*
X68570Y-61400D03*
X69080Y-61400D03*
G54D37*
X70300Y-53255D03*
X70300Y-52745D03*
G54D35*
X72850Y-66684D03*
X72850Y-66016D03*
G54D36*
X46166Y-50250D03*
X46834Y-50250D03*
X70184Y-57000D03*
X69516Y-57000D03*
G54D35*
X46550Y-69334D03*
X46550Y-68666D03*
G54D36*
X43734Y-56550D03*
X43066Y-56550D03*
X63384Y-48200D03*
X62716Y-48200D03*
G54D11*
X52645Y-76150D03*
X53155Y-76150D03*
G54D37*
X72000Y-52745D03*
X72000Y-53255D03*
G54D11*
X68070Y-61900D03*
X68580Y-61900D03*
G54D37*
X71650Y-51545D03*
X71650Y-52055D03*
X67900Y-52195D03*
X67900Y-52705D03*
X67425Y-63105D03*
X67425Y-62595D03*
X63950Y-64455D03*
X63950Y-63945D03*
G54D11*
X55045Y-70450D03*
X55555Y-70450D03*
X54155Y-75150D03*
X53645Y-75150D03*
X62955Y-75000D03*
X62445Y-75000D03*
G54D37*
X52200Y-46695D03*
X52200Y-47205D03*
X54350Y-77845D03*
X54350Y-78355D03*
X47500Y-45655D03*
X47500Y-45145D03*
G54D11*
X67545Y-71550D03*
X68055Y-71550D03*
G54D37*
X43900Y-66645D03*
X43900Y-67155D03*
G54D11*
X46195Y-63450D03*
X46705Y-63450D03*
X68655Y-72550D03*
X68145Y-72550D03*
X66645Y-73550D03*
X67155Y-73550D03*
G54D37*
X45050Y-65555D03*
X45050Y-65045D03*
X54100Y-47905D03*
X54100Y-47395D03*
G54D11*
X49755Y-45850D03*
X49245Y-45850D03*
G54D38*
X61656Y-77900D03*
X62443Y-77900D03*
G54D39*
X62050Y-77653D03*
X62050Y-78146D03*
G54D38*
X61656Y-76750D03*
X62443Y-76750D03*
G54D39*
X62050Y-76503D03*
X62050Y-76996D03*
G54D38*
X61656Y-75600D03*
X62443Y-75600D03*
G54D39*
X62050Y-75353D03*
X62050Y-75846D03*
G54D36*
X59166Y-66650D03*
X59834Y-66650D03*
X56216Y-66650D03*
X56884Y-66650D03*
G54D11*
X60695Y-43700D03*
X61205Y-43700D03*
G54D37*
X47000Y-55105D03*
X47000Y-54595D03*
G54D11*
X41945Y-53200D03*
X42455Y-53200D03*
X74305Y-71550D03*
X73795Y-71550D03*
X49645Y-72650D03*
X50155Y-72650D03*
G54D37*
X74400Y-54995D03*
X74400Y-55505D03*
X60850Y-44245D03*
X60850Y-44755D03*
X62350Y-48895D03*
X62350Y-49405D03*
X48850Y-55095D03*
X48850Y-55605D03*
X44450Y-55105D03*
X44450Y-54595D03*
G54D11*
X41405Y-52700D03*
X40895Y-52700D03*
X45255Y-53650D03*
X44745Y-53650D03*
X74305Y-71100D03*
X73795Y-71100D03*
X74395Y-66600D03*
X74905Y-66600D03*
G54D37*
X49650Y-72155D03*
X49650Y-71645D03*
G54D11*
X49145Y-69350D03*
X49655Y-69350D03*
G54D37*
X73150Y-55505D03*
X73150Y-54995D03*
X71650Y-55705D03*
X71650Y-55195D03*
G54D19*
X66467Y-46976D03*
X66467Y-47724D03*
X67333Y-47350D03*
X43933Y-61024D03*
X43933Y-60276D03*
X43067Y-60650D03*
X47467Y-50326D03*
X47467Y-51074D03*
X48333Y-50700D03*
X68183Y-70474D03*
X68183Y-69726D03*
X67317Y-70100D03*
G54D18*
X47424Y-74767D03*
X46676Y-74767D03*
X47050Y-75633D03*
G54D19*
X73433Y-61674D03*
X73433Y-60926D03*
X72567Y-61300D03*
G54D40*
X45600Y-42350D03*
X45600Y-77750D03*
X70500Y-42350D03*
G54D41*
X67516Y-61550D03*
X65783Y-61550D03*
G54D42*
X68850Y-51033D03*
X68850Y-52766D03*
X46100Y-65533D03*
X46100Y-67266D03*
G54D41*
X54266Y-74150D03*
X52533Y-74150D03*
G54D42*
X53150Y-47716D03*
X53150Y-45983D03*
G54D41*
X66166Y-71900D03*
X64433Y-71900D03*
G54D38*
X51100Y-53434D03*
X51100Y-52765D03*
G54D43*
X50865Y-66650D03*
X51534Y-66650D03*
G54D38*
X63600Y-49165D03*
X63600Y-49834D03*
X49650Y-61015D03*
X49650Y-61684D03*
X62050Y-73634D03*
X62050Y-72965D03*
X68000Y-55634D03*
X68000Y-54965D03*
G54D44*
X65159Y-77316D03*
X65553Y-77316D03*
X65946Y-77316D03*
X66340Y-77316D03*
X66734Y-77316D03*
X50986Y-42761D03*
X50592Y-42761D03*
X50198Y-42761D03*
X49805Y-42761D03*
X49411Y-42761D03*
G54D45*
X40793Y-67124D03*
X40793Y-67517D03*
X40793Y-67911D03*
X40793Y-68305D03*
X40793Y-68698D03*
X75348Y-52950D03*
X75348Y-52557D03*
X75348Y-52163D03*
X75348Y-51769D03*
X75348Y-51375D03*
M02*
