M48
;DRILL file {Pcbnew (2013-07-07 BZR 4022)-stable} date 3/26/2016 10:09:39 AM
;FORMAT={-:-/ absolute / inch / decimal}
FMAT,2
INCH,TZ
T1C0.015
T2C0.125
%
G90
G05
M72
T1
X3.995Y-5.365
X4.01Y-6.25
X4.05Y-5.025
X4.05Y-5.075
X4.05Y-5.125
X4.05Y-5.175
X4.05Y-5.225
X4.055Y-6.355
X4.09Y-5.365
X4.115Y-6.07
X4.17Y-6.04
X4.175Y-5.525
X4.175Y-6.38
X4.19Y-5.025
X4.195Y-5.275
X4.195Y-6.75
X4.24Y-5.27
X4.255Y-5.755
X4.255Y-5.855
X4.26Y-5.475
X4.26Y-5.525
X4.26Y-5.575
X4.26Y-5.655
X4.275Y-6.25
X4.28Y-5.27
X4.28Y-5.32
X4.285Y-6.51
X4.33Y-4.925
X4.335Y-5.075
X4.335Y-5.705
X4.335Y-6.165
X4.335Y-6.51
X4.39Y-6.625
X4.39Y-6.75
X4.395Y-5.42
X4.395Y-6.225
X4.42Y-4.73
X4.42Y-6.93
X4.46Y-6.97
X4.465Y-6.41
X4.465Y-7.37
X4.47Y-4.73
X4.47Y-4.89
X4.495Y-6.08
X4.505Y-7.27
X4.51Y-6.975
X4.52Y-4.73
X4.52Y-6.235
X4.52Y-6.27
X4.54Y-6.73
X4.555Y-6.84
X4.575Y-6.
X4.585Y-6.965
X4.6Y-5.42
X4.61Y-6.195
X4.61Y-6.27
X4.61Y-6.4
X4.61Y-7.41
X4.62Y-6.
X4.62Y-6.08
X4.625Y-7.475
X4.645Y-5.855
X4.65Y-4.95
X4.655Y-5.075
X4.655Y-6.82
X4.66Y-7.41
X4.665Y-5.125
X4.665Y-5.175
X4.665Y-5.225
X4.665Y-5.275
X4.675Y-6.725
X4.69Y-5.075
X4.69Y-7.63
X4.69Y-7.68
X4.7Y-4.9
X4.7Y-5.365
X4.705Y-4.565
X4.71Y-6.85
X4.71Y-7.41
X4.715Y-7.16
X4.73Y-6.375
X4.74Y-5.365
X4.74Y-5.445
X4.74Y-5.51
X4.745Y-7.525
X4.75Y-4.475
X4.76Y-7.41
X4.77Y-6.835
X4.78Y-5.31
X4.785Y-5.705
X4.785Y-7.46
X4.79Y-5.51
X4.8Y-5.02
X4.8Y-5.255
X4.82Y-4.795
X4.82Y-6.835
X4.835Y-6.16
X4.845Y-7.405
X4.845Y-7.515
X4.85Y-7.37
X4.86Y-7.3
X4.865Y-6.445
X4.87Y-6.835
X4.875Y-4.615
X4.88Y-5.02
X4.885Y-6.
X4.89Y-4.585
X4.905Y-4.72
X4.905Y-4.795
X4.905Y-4.91
X4.905Y-7.325
X4.915Y-7.25
X4.92Y-6.8
X4.925Y-5.605
X4.925Y-5.655
X4.925Y-5.705
X4.925Y-5.755
X4.93Y-4.5
X4.93Y-5.02
X4.94Y-6.23
X4.95Y-5.805
X4.95Y-7.74
X4.97Y-6.8
X4.975Y-4.545
X4.975Y-5.92
X4.975Y-7.625
X4.98Y-4.39
X4.98Y-5.78
X4.99Y-4.795
X5.Y-7.31
X5.Y-7.74
X5.015Y-6.74
X5.015Y-6.9
X5.02Y-4.39
X5.025Y-4.795
X5.035Y-5.13
X5.055Y-7.265
X5.06Y-5.24
X5.06Y-5.49
X5.065Y-6.125
X5.07Y-5.655
X5.07Y-5.82
X5.08Y-4.5
X5.08Y-6.83
X5.08Y-7.45
X5.08Y-7.54
X5.095Y-7.685
X5.1Y-4.62
X5.1Y-6.99
X5.11Y-6.385
X5.115Y-6.535
X5.12Y-6.015
X5.125Y-4.72
X5.135Y-6.725
X5.135Y-6.835
X5.135Y-7.235
X5.145Y-6.435
X5.155Y-7.54
X5.16Y-6.59
X5.16Y-7.45
X5.175Y-5.14
X5.175Y-6.885
X5.175Y-6.925
X5.185Y-6.62
X5.19Y-4.965
X5.19Y-5.015
X5.19Y-7.765
X5.19Y-7.825
X5.2Y-7.415
X5.22Y-5.315
X5.25Y-5.085
X5.255Y-7.35
X5.295Y-6.6
X5.295Y-6.655
X5.295Y-7.475
X5.315Y-4.55
X5.34Y-6.435
X5.34Y-6.74
X5.34Y-6.9
X5.365Y-5.73
X5.365Y-6.285
X5.38Y-5.255
X5.385Y-6.385
X5.385Y-6.51
X5.41Y-4.61
X5.43Y-5.195
X5.43Y-5.27
X5.47Y-4.875
X5.47Y-6.76
X5.475Y-7.835
X5.48Y-5.885
X5.48Y-5.935
X5.48Y-5.97
X5.48Y-6.01
X5.48Y-6.1
X5.48Y-6.135
X5.5Y-6.525
X5.515Y-4.91
X5.54Y-6.27
X5.54Y-6.49
X5.545Y-7.09
X5.565Y-6.245
X5.57Y-5.82
X5.575Y-6.695
X5.58Y-6.9
X5.59Y-6.49
X5.6Y-7.34
X5.61Y-6.06
X5.61Y-6.19
X5.615Y-5.885
X5.615Y-5.935
X5.615Y-6.01
X5.615Y-6.135
X5.625Y-6.995
X5.625Y-7.035
X5.625Y-7.075
X5.625Y-7.115
X5.625Y-7.155
X5.625Y-7.195
X5.625Y-7.235
X5.625Y-7.275
X5.625Y-7.315
X5.625Y-7.37
X5.625Y-7.41
X5.625Y-7.45
X5.625Y-7.49
X5.625Y-7.55
X5.625Y-7.585
X5.625Y-7.62
X5.64Y-6.49
X5.645Y-6.225
X5.65Y-5.82
X5.65Y-6.925
X5.675Y-6.47
X5.695Y-6.22
X5.705Y-6.49
X5.71Y-5.745
X5.715Y-6.615
X5.715Y-6.665
X5.745Y-6.06
X5.75Y-5.945
X5.75Y-6.01
X5.75Y-6.135
X5.75Y-6.18
X5.76Y-6.975
X5.76Y-7.015
X5.76Y-7.055
X5.76Y-7.095
X5.76Y-7.135
X5.76Y-7.175
X5.76Y-7.215
X5.76Y-7.255
X5.76Y-7.295
X5.76Y-7.35
X5.76Y-7.39
X5.76Y-7.43
X5.76Y-7.47
X5.76Y-7.51
X5.795Y-6.66
X5.805Y-7.02
X5.805Y-7.265
X5.805Y-7.67
X5.81Y-7.51
X5.815Y-5.695
X5.815Y-6.38
X5.815Y-6.49
X5.835Y-6.27
X5.845Y-7.275
X5.85Y-7.235
X5.855Y-7.
X5.855Y-7.035
X5.855Y-7.075
X5.855Y-7.115
X5.855Y-7.155
X5.855Y-7.195
X5.855Y-7.31
X5.855Y-7.39
X5.855Y-7.45
X5.855Y-7.49
X5.865Y-6.245
X5.865Y-6.49
X5.88Y-6.01
X5.88Y-6.06
X5.885Y-6.605
X5.89Y-6.215
X5.895Y-6.095
X5.9Y-5.795
X5.9Y-5.845
X5.915Y-6.185
X5.945Y-6.27
X5.945Y-6.465
X5.95Y-5.72
X5.95Y-5.79
X5.965Y-4.875
X5.965Y-6.135
X5.965Y-6.185
X5.97Y-5.605
X5.97Y-6.49
X5.975Y-6.24
X5.975Y-6.715
X5.975Y-6.91
X5.985Y-6.98
X5.985Y-7.02
X5.985Y-7.055
X5.985Y-7.095
X5.985Y-7.135
X5.985Y-7.175
X5.985Y-7.21
X5.985Y-7.28
X5.99Y-7.245
X5.99Y-7.47
X5.99Y-7.51
X5.99Y-7.55
X5.99Y-7.585
X5.99Y-7.62
X6.005Y-6.27
X6.01Y-6.715
X6.01Y-6.91
X6.02Y-7.28
X6.02Y-7.445
X6.025Y-7.36
X6.035Y-4.37
X6.04Y-6.615
X6.04Y-6.665
X6.04Y-6.74
X6.04Y-6.895
X6.045Y-7.39
X6.055Y-4.63
X6.055Y-4.68
X6.055Y-7.28
X6.06Y-4.885
X6.08Y-7.39
X6.09Y-4.535
X6.1Y-5.705
X6.1Y-5.755
X6.1Y-5.83
X6.1Y-5.92
X6.1Y-5.97
X6.1Y-6.045
X6.105Y-6.135
X6.105Y-6.185
X6.13Y-7.56
X6.13Y-7.675
X6.13Y-7.79
X6.135Y-4.435
X6.155Y-5.04
X6.16Y-4.32
X6.16Y-4.37
X6.185Y-7.15
X6.195Y-4.88
X6.195Y-7.005
X6.205Y-7.5
X6.205Y-7.62
X6.205Y-7.735
X6.205Y-7.85
X6.23Y-6.715
X6.235Y-5.615
X6.235Y-5.83
X6.24Y-5.705
X6.24Y-5.92
X6.24Y-6.01
X6.24Y-6.045
X6.24Y-6.095
X6.24Y-6.135
X6.25Y-6.965
X6.25Y-7.005
X6.26Y-4.78
X6.27Y-4.86
X6.28Y-5.79
X6.28Y-7.56
X6.28Y-7.675
X6.28Y-7.79
X6.305Y-7.28
X6.325Y-4.985
X6.33Y-5.04
X6.33Y-5.575
X6.33Y-5.795
X6.33Y-6.225
X6.335Y-7.5
X6.35Y-4.28
X6.35Y-4.41
X6.365Y-5.97
X6.395Y-4.85
X6.395Y-6.485
X6.4Y-6.905
X6.405Y-4.285
X6.415Y-5.195
X6.415Y-5.265
X6.435Y-6.375
X6.4375Y-7.32
X6.44Y-7.255
X6.455Y-4.285
X6.455Y-4.94
X6.47Y-5.265
X6.475Y-6.375
X6.475Y-6.485
X6.495Y-4.55
X6.505Y-5.64
X6.52Y-6.25
X6.52Y-7.5
X6.525Y-6.155
X6.53Y-5.99
X6.555Y-6.755
X6.555Y-6.805
X6.575Y-5.695
X6.59Y-4.985
X6.595Y-4.7
X6.595Y-7.615
X6.61Y-5.595
X6.625Y-4.65
X6.635Y-7.615
X6.65Y-4.43
X6.65Y-6.62
X6.66Y-4.525
X6.66Y-5.655
X6.665Y-5.555
X6.665Y-7.4
X6.68Y-6.58
X6.68Y-7.245
X6.705Y-5.335
X6.705Y-5.545
X6.705Y-6.69
X6.715Y-7.3925
X6.72Y-4.665
X6.72Y-7.105
X6.72Y-7.5
X6.735Y-4.79
X6.735Y-4.84
X6.76Y-7.37
X6.8Y-5.85
X6.8Y-6.35
X6.8Y-6.435
X6.805Y-6.785
X6.82Y-6.525
X6.83Y-5.36
X6.835Y-6.35
X6.835Y-6.8
X6.845Y-6.925
X6.845Y-7.1
X6.86Y-4.58
X6.865Y-6.785
X6.87Y-6.35
X6.875Y-5.57
X6.885Y-4.695
X6.885Y-5.325
X6.89Y-5.85
X6.91Y-6.185
X6.92Y-7.245
X6.92Y-7.28
X6.925Y-6.295
X6.925Y-6.725
X6.935Y-5.335
X6.935Y-5.95
X6.935Y-6.
X6.94Y-5.75
X6.94Y-5.8
X6.95Y-5.66
X6.955Y-6.53
X6.965Y-5.485
X6.965Y-7.02
X6.965Y-7.39
X6.98Y-4.95
X6.98Y-5.04
X6.98Y-6.565
X6.99Y-4.805
X7.005Y-6.41
X7.015Y-5.605
X7.015Y-7.445
X7.025Y-6.04
X7.03Y-6.565
X7.04Y-4.805
X7.055Y-5.04
X7.055Y-7.315
X7.06Y-6.135
X7.08Y-6.565
X7.08Y-6.895
X7.08Y-7.155
X7.11Y-6.135
X7.115Y-4.975
X7.12Y-6.385
X7.12Y-6.435
X7.13Y-4.62
X7.13Y-7.155
X7.15Y-4.75
X7.165Y-5.975
X7.175Y-5.93
X7.18Y-7.155
X7.19Y-5.405
X7.2Y-5.36
X7.215Y-5.18
X7.215Y-5.22
X7.215Y-5.485
X7.215Y-5.605
X7.215Y-6.555
X7.225Y-6.28
X7.23Y-6.585
X7.23Y-7.03
X7.23Y-7.155
X7.245Y-5.93
X7.245Y-6.07
X7.25Y-5.675
X7.265Y-5.48
X7.275Y-5.295
X7.28Y-7.155
X7.285Y-6.56
X7.315Y-5.59
X7.33Y-7.155
X7.34Y-6.255
X7.345Y-6.34
X7.36Y-5.505
X7.36Y-5.585
X7.39Y-5.77
X7.395Y-5.95
X7.395Y-6.095
X7.395Y-6.17
X7.4Y-5.5
X7.4Y-6.31
X7.4Y-6.56
X7.42Y-5.255
X7.44Y-5.595
X7.465Y-7.11
X7.465Y-7.155
X7.49Y-5.595
X7.49Y-6.97
X7.53Y-5.63
X7.53Y-5.77
X7.53Y-5.83
X7.53Y-5.88
X7.53Y-5.93
X7.53Y-6.76
X7.53Y-6.825
X7.53Y-6.875
T2
X4.252Y-4.4488
X4.252Y-7.5591
X7.3622Y-4.4488
X7.3622Y-7.5591
T0
M30
