G04 (created by PCBNEW (2013-07-07 BZR 4022)-stable) date 3/26/2016 10:09:36 AM*
%MOIN*%
G04 Gerber Fmt 3.4, Leading zero omitted, Abs format*
%FSLAX34Y34*%
G01*
G70*
G90*
G04 APERTURE LIST*
%ADD10C,0.00590551*%
%ADD11C,0.00787402*%
%ADD12C,0.005*%
G04 APERTURE END LIST*
G54D10*
G54D11*
X43350Y-73000D02*
X39450Y-73000D01*
X45100Y-74750D02*
X43350Y-73000D01*
X45100Y-78650D02*
X45100Y-74750D01*
X71050Y-74800D02*
X71050Y-78650D01*
X72850Y-73000D02*
X71050Y-74800D01*
X76700Y-73000D02*
X72850Y-73000D01*
X72850Y-47050D02*
X76700Y-47050D01*
X71050Y-45250D02*
X72850Y-47050D01*
X71050Y-41450D02*
X71050Y-45250D01*
X43350Y-47000D02*
X39450Y-47000D01*
X45050Y-45300D02*
X43350Y-47000D01*
X45050Y-41450D02*
X45050Y-45300D01*
X49350Y-65700D02*
X53200Y-65700D01*
X49350Y-67800D02*
X49350Y-65700D01*
X43750Y-67800D02*
X49350Y-67800D01*
X68200Y-65450D02*
X62650Y-65450D01*
X68200Y-64950D02*
X68200Y-65450D01*
X76650Y-64950D02*
X68200Y-64950D01*
X60000Y-53850D02*
X60000Y-41400D01*
X39450Y-53900D02*
X63900Y-53900D01*
X53200Y-68650D02*
X53200Y-53900D01*
X54250Y-68650D02*
X53200Y-68650D01*
X54250Y-72850D02*
X54250Y-68650D01*
X55200Y-72850D02*
X54250Y-72850D01*
X55200Y-77350D02*
X55200Y-72850D01*
X60250Y-77350D02*
X55200Y-77350D01*
X60250Y-75150D02*
X60250Y-77350D01*
X61150Y-67550D02*
X61150Y-78650D01*
X62650Y-67550D02*
X61150Y-67550D01*
X62650Y-62900D02*
X62650Y-67550D01*
X62900Y-62650D02*
X62650Y-62900D01*
X63900Y-62650D02*
X62900Y-62650D01*
X63900Y-53900D02*
X63900Y-62650D01*
X73200Y-54450D02*
X63900Y-54450D01*
G54D10*
X56645Y-68451D02*
X59496Y-68451D01*
X56645Y-76829D02*
X59496Y-76829D01*
X59496Y-68451D02*
X59496Y-76829D01*
X56645Y-68451D02*
X56645Y-76829D01*
G54D12*
X59984Y-76701D02*
X59984Y-76451D01*
X59889Y-76451D01*
X59865Y-76463D01*
X59853Y-76475D01*
X59841Y-76498D01*
X59841Y-76534D01*
X59853Y-76558D01*
X59865Y-76570D01*
X59889Y-76582D01*
X59984Y-76582D01*
X59615Y-76451D02*
X59734Y-76451D01*
X59746Y-76570D01*
X59734Y-76558D01*
X59710Y-76546D01*
X59651Y-76546D01*
X59627Y-76558D01*
X59615Y-76570D01*
X59603Y-76594D01*
X59603Y-76653D01*
X59615Y-76677D01*
X59627Y-76689D01*
X59651Y-76701D01*
X59710Y-76701D01*
X59734Y-76689D01*
X59746Y-76677D01*
X45808Y-42871D02*
X45891Y-42871D01*
X45891Y-43002D02*
X45891Y-42752D01*
X45772Y-42752D01*
X45677Y-43002D02*
X45677Y-42752D01*
X45617Y-42752D01*
X45582Y-42764D01*
X45558Y-42788D01*
X45546Y-42811D01*
X45534Y-42859D01*
X45534Y-42895D01*
X45546Y-42942D01*
X45558Y-42966D01*
X45582Y-42990D01*
X45617Y-43002D01*
X45677Y-43002D01*
X45308Y-42752D02*
X45427Y-42752D01*
X45439Y-42871D01*
X45427Y-42859D01*
X45403Y-42847D01*
X45344Y-42847D01*
X45320Y-42859D01*
X45308Y-42871D01*
X45296Y-42895D01*
X45296Y-42954D01*
X45308Y-42978D01*
X45320Y-42990D01*
X45344Y-43002D01*
X45403Y-43002D01*
X45427Y-42990D01*
X45439Y-42978D01*
X45808Y-78271D02*
X45891Y-78271D01*
X45891Y-78402D02*
X45891Y-78152D01*
X45772Y-78152D01*
X45677Y-78402D02*
X45677Y-78152D01*
X45617Y-78152D01*
X45582Y-78164D01*
X45558Y-78188D01*
X45546Y-78211D01*
X45534Y-78259D01*
X45534Y-78295D01*
X45546Y-78342D01*
X45558Y-78366D01*
X45582Y-78390D01*
X45617Y-78402D01*
X45677Y-78402D01*
X45320Y-78235D02*
X45320Y-78402D01*
X45379Y-78140D02*
X45439Y-78319D01*
X45284Y-78319D01*
X70708Y-42871D02*
X70791Y-42871D01*
X70791Y-43002D02*
X70791Y-42752D01*
X70672Y-42752D01*
X70577Y-43002D02*
X70577Y-42752D01*
X70517Y-42752D01*
X70482Y-42764D01*
X70458Y-42788D01*
X70446Y-42811D01*
X70434Y-42859D01*
X70434Y-42895D01*
X70446Y-42942D01*
X70458Y-42966D01*
X70482Y-42990D01*
X70517Y-43002D01*
X70577Y-43002D01*
X70220Y-42752D02*
X70267Y-42752D01*
X70291Y-42764D01*
X70303Y-42776D01*
X70327Y-42811D01*
X70339Y-42859D01*
X70339Y-42954D01*
X70327Y-42978D01*
X70315Y-42990D01*
X70291Y-43002D01*
X70244Y-43002D01*
X70220Y-42990D01*
X70208Y-42978D01*
X70196Y-42954D01*
X70196Y-42895D01*
X70208Y-42871D01*
X70220Y-42859D01*
X70244Y-42847D01*
X70291Y-42847D01*
X70315Y-42859D01*
X70327Y-42871D01*
X70339Y-42895D01*
M02*
